<svg xmlns="http://www.w3.org/2000/svg" viewBox="0 0 724.58 335.86"><defs><style>.cls-1{font-size:111.36px;font-family:FugazOne-Regular, Fugaz One;}.cls-1,.cls-2,.cls-7{fill:#fff;}.cls-2{font-size:25.29px;font-family:Roboto-Condensed, Roboto;letter-spacing:0.6em;}.cls-3{letter-spacing:0.59em;}.cls-4{letter-spacing:0.59em;}.cls-5{letter-spacing:0.59em;}.cls-6{font-family:Roboto-BoldCondensed, Roboto;font-weight:700;}</style></defs><title>logo_ver</title><g id="Capa_2" data-name="Capa 2"><g id="Capa_1-2" data-name="Capa 1"><text class="cls-1" transform="translate(270.72 194.29)">Whatha</text><text class="cls-2" transform="translate(275.62 245.25) scale(0.96 1)">I<tspan class="cls-3" x="21.57" y="0">N</tspan><tspan x="51.88" y="0">TER</tspan><tspan class="cls-4" x="136.57" y="0">A</tspan><tspan class="cls-5" x="165.52" y="0">C</tspan><tspan x="194.32" y="0">TIVE</tspan><tspan class="cls-6" x="300.44" y="0">DESIGN</tspan></text><path class="cls-7" d="M221.45,1.84V86.52h1.84L222,85.2l-.24.24a1.85,1.85,0,0,0-.31,2.24c.07.12.14.23.2.35l1.64-.84h-1.84V210.24h1.84l-1.61-.9c-1.52,2.74-3.14,5.4-4.86,8l3.08,2q2.64-4,5-8.25a1.84,1.84,0,0,0,.23-.89v-123a1.89,1.89,0,0,0-.2-.84l-.29-.52-1.59.92,1.29,1.32.24-.24a1.84,1.84,0,0,0,.55-1.31V1.84Z"/><path class="cls-7" d="M137.32,137.32h0a1.83,1.83,0,0,0,0,2.6l16.29,16.28a1.82,1.82,0,0,0,1.3.54h0v-1.84l-1.31,1.3,63.46,63.45,1.3-1.3-1.54-1c-1.08,1.64-2.21,3.26-3.37,4.85a125.19,125.19,0,0,1-23.11,24.12l1.15,1.44,0-1.84h-.67a79.93,79.93,0,0,0-59.68,26.64l2.75,2.46a76.23,76.23,0,0,1,56.93-25.42h.59a1.82,1.82,0,0,0,1.19-.4,129,129,0,0,0,23.79-24.83q1.78-2.44,3.47-5a1.83,1.83,0,0,0-.24-2.31l-63.45-63.45a1.87,1.87,0,0,0-1.3-.54h0v1.84l1.3-1.3-16.28-16.28-1.3,1.3,1.3,1.3h0l-2.6-2.61Z"/><path class="cls-7" d="M114.4,326.05a76.23,76.23,0,0,1,19.53-51l-1.37-1.23.28,1.82a127.77,127.77,0,0,0,59.8-26.41l-1.15-1.44v1.84q3.44,0,6.8.36l.17-1.84-1.3-1.3-85.53,85.53,2.61,2.6,85.53-85.53a1.84,1.84,0,0,0,.43-1.92,1.82,1.82,0,0,0-1.56-1.21c-2.35-.22-4.72-.35-7.12-.37a1.88,1.88,0,0,0-1.17.4A124.09,124.09,0,0,1,132.27,272a1.93,1.93,0,0,0-1.09.59,79.86,79.86,0,0,0-20.46,53.49Z"/><path class="cls-7" d="M156.5,123.25l39.77-70.06L206,36.1l-8.63,19.31-34.06,76.24-10,22.49,1.68.75-1.3-1.3h0l2.6,2.6h0a1.75,1.75,0,0,0,.38-.55l10-22.49L200.7,56.92,225,2.59A1.84,1.84,0,0,0,221.69.93L193.06,51.37,153.3,121.44l3.2,1.81Z"/><path class="cls-7" d="M111.26,81.31l16.28,16.28,25.52,25.52v27.35l-13.14-13.14-26-26-2.61,2.6,26.06,26.06L153.6,156.2a1.84,1.84,0,0,0,3.14-1.3V122.35a1.85,1.85,0,0,0-.54-1.31L130.15,95,113.87,78.7l-2.61,2.61Z"/><path class="cls-7" d="M110.72,326.05c0,2.63.13,5.22.37,7.78l1.84-.18-1.31-1.3-.36.36,2.61,2.61.36-.37a1.85,1.85,0,0,0,.53-1.48c-.23-2.44-.36-4.91-.36-7.42Z"/><path class="cls-7" d="M110.72,326.05v8h1.84l1.31-1.3-.37-.36-2.6,2.6.36.37a1.87,1.87,0,0,0,2,.4A1.84,1.84,0,0,0,114.4,334v-8Z"/><path class="cls-7" d="M93.94,272.56a79.9,79.9,0,0,0-59.67-26.64h-.68l0,1.84,1.15-1.44a125.43,125.43,0,0,1-23.1-24.12q-1.75-2.38-3.37-4.85l-3.08,2q1.66,2.55,3.47,5A128.41,128.41,0,0,0,32.49,249.2a1.8,1.8,0,0,0,1.18.4h.6A76.23,76.23,0,0,1,91.2,275l2.74-2.46Z"/><polyline class="cls-7" points="110.72 112.57 110.72 326.05 114.41 326.05 114.41 112.57"/><path class="cls-7" d="M112.56,326.05h-1.84q0,3.76-.36,7.42l1.84.18,1.3-1.3L28,246.82l-1.31,1.3.18,1.84q3.36-.33,6.8-.36l0-1.84-1.15,1.44a127.82,127.82,0,0,0,59.8,26.41l.29-1.82L91.2,275a76.18,76.18,0,0,1,19.52,51h3.68a79.81,79.81,0,0,0-20.46-53.49,1.87,1.87,0,0,0-1.08-.59,124.08,124.08,0,0,1-58.08-25.65,1.85,1.85,0,0,0-1.16-.4c-2.4,0-4.77.15-7.12.37a1.84,1.84,0,0,0-1.13,3.13L110.9,335a1.82,1.82,0,0,0,1.92.43,1.85,1.85,0,0,0,1.21-1.55q.38-3.84.37-7.78Z"/><path class="cls-7" d="M71.52,123.65,97.58,97.59l13.14-13.14v27.36L85.2,137.33,68.93,153.6l2.6,2.6L87.8,139.93l26.07-26.06a1.86,1.86,0,0,0,.53-1.3V80a1.84,1.84,0,0,0-3.14-1.3L95,95,68.92,121l2.6,2.61Z"/><path class="cls-7" d="M.24,2.75,28.86,53.19l39.52,69.64v32.06h3.68V122.35a1.79,1.79,0,0,0-.24-.91L32.06,51.37,3.44.93.24,2.75Z"/><path class="cls-7" d="M70.23,154.9l-1.3-1.3h0L5.47,217.06l1.3,1.3,1.54-1q-2.58-3.89-4.86-8l-1.61.9H3.68V87.18H1.84l1.61.9c.09-.16.16-.3.21-.38a1.83,1.83,0,0,0-.29-2.26l-.24-.24L1.84,86.52H3.68v-76L24.43,56.91l34.06,76.24,10.05,22.49a1.64,1.64,0,0,0,.35.52h0l1.34-1.27-1.3-1.3,1.3,1.3,1.33-1.27h0l-1.33,1.27,1.68-.75-10.05-22.5L27.79,55.41,3.52,1.09A1.84,1.84,0,0,0,0,1.84V86.52a1.84,1.84,0,0,0,.55,1.31l.24.24,1.29-1.32L.5,85.81l-.26.46a1.82,1.82,0,0,0-.24.91V210.25a1.84,1.84,0,0,0,.23.89q2.36,4.22,5,8.24a1.85,1.85,0,0,0,2.84.28l63.45-63.45h0a1.84,1.84,0,0,0,0-2.57Z"/></g></g></svg>