<svg xmlns="http://www.w3.org/2000/svg" viewBox="0 0 544.98 600.86"><defs><style>.cls-1{fill:#fff;}</style></defs><title>logo</title><g id="Capa_2" data-name="Capa 2"><g id="Capa_1-2" data-name="Capa 1"><path class="cls-1" d="M85.64,435.57l-2.39,76.34h3.23l24.37-76.34h27.46l-34.6,100.86h-42l3.78-64.58L46.69,536.43h-42l1-100.86H33.1l-2.52,76.34H33.8l24.52-76.34Z"/><path class="cls-1" d="M207.37,518.5a11.68,11.68,0,0,0,5.75-1.4l-.7,15.83a22.86,22.86,0,0,1-15,5.46q-19.06,0-19.06-16a35.59,35.59,0,0,1,.56-6L182,499.17a30.73,30.73,0,0,0,.42-5.05q0-6.72-7.08-6.72t-11,4.76l-7.85,44.27H132.71L151.48,430.1h23.81l-8,45.25a25.3,25.3,0,0,1,19.33-8.26q14.15,0,18.35,6.3a16,16,0,0,1,2.94,9.39,50.19,50.19,0,0,1-.84,9.52l-3.78,20.88a9.78,9.78,0,0,0-.14,1.54Q203.17,518.5,207.37,518.5Z"/><path class="cls-1" d="M287.08,514.86q0,3.64,3.71,3.64a12.74,12.74,0,0,0,6.24-1.4l-.7,15.83a23.4,23.4,0,0,1-15.13,5.46q-15.42,0-17.09-11.21-7,11.22-20.6,11.21-23,0-23-19.75a43.77,43.77,0,0,1,.7-7.43l2.94-16.39q2.23-12.6,10.3-20.1t21-7.49q13,0,17.58,6l.7-4.2h21.3l-7.85,44.13A10.58,10.58,0,0,0,287.08,514.86Zm-41.46-6.73a16.66,16.66,0,0,0-.29,3.5,6.42,6.42,0,0,0,2.11,4.42c1.4,1.45,3.75,2.17,7.07,2.17a11.42,11.42,0,0,0,8.62-3.92l4.2-23.54q-1.54-3.5-7.29-3.5-10.79,0-12.6,10.37Z"/><path class="cls-1" d="M335.69,538.39q-16.26,0-23.39-7.28Q307,525.78,307,516.82a39,39,0,0,1,.56-6.31l9.53-54.21,25.63-10.65-4.06,23.4H377.3l-3.51,19.75H335.13l-2.8,15.83a23,23,0,0,0-.56,4.76q0,8.83,8.4,8.83a9.24,9.24,0,0,0,7.5-3.78,22.25,22.25,0,0,0,4.13-10.09h23.26Q369.17,538.39,335.69,538.39Z"/><path class="cls-1" d="M455.33,518.5a11.67,11.67,0,0,0,5.74-1.4l-.7,15.83a22.84,22.84,0,0,1-15,5.46q-19,0-19.05-16a34.59,34.59,0,0,1,.56-6L430,499.17a30.73,30.73,0,0,0,.42-5.05q0-6.72-7.08-6.72t-11,4.76l-7.85,44.27H380.66L399.43,430.1h23.82l-8,45.25a25.32,25.32,0,0,1,19.33-8.26q14.15,0,18.35,6.3a16,16,0,0,1,2.95,9.39,50.19,50.19,0,0,1-.84,9.52l-3.79,20.88a9.78,9.78,0,0,0-.14,1.54Q451.12,518.5,455.33,518.5Z"/><path class="cls-1" d="M535,514.86q0,3.64,3.72,3.64a12.73,12.73,0,0,0,6.23-1.4l-.7,15.83a23.38,23.38,0,0,1-15.13,5.46q-15.4,0-17.09-11.21-7,11.22-20.59,11.21-23,0-23-19.75a43.77,43.77,0,0,1,.7-7.43l2.94-16.39q2.25-12.6,10.3-20.1t21-7.49q13,0,17.58,6l.71-4.2H543l-7.85,44.13A10.58,10.58,0,0,0,535,514.86Zm-41.46-6.73a16.77,16.77,0,0,0-.28,3.5,6.41,6.41,0,0,0,2.1,4.42q2.1,2.18,7.07,2.17a11.4,11.4,0,0,0,8.62-3.92l4.2-23.54q-1.54-3.5-7.28-3.5-10.8,0-12.61,10.37Z"/><path class="cls-1" d="M3,600.53H0V577.91H3Z"/><path class="cls-1" d="M40.27,600.53h-3l-8.39-16.68-.09,0v16.65h-3V577.91h3l8.39,16.64.09,0V577.91h3Z"/><path class="cls-1" d="M75.22,580.34H69.48v20.19h-3V580.34h-5.7v-2.43H75.22Z"/><path class="cls-1" d="M106.47,590H99.12v8.11h8.66v2.39H96.1V577.91h11.61v2.43H99.12v7.28h7.35Z"/><path class="cls-1" d="M132.11,590.79v9.74h-3v-22.6h6.39a6.63,6.63,0,0,1,4.83,1.66,6.39,6.39,0,0,1,1.7,4.77,5.94,5.94,0,0,1-.8,3.1,5.38,5.38,0,0,1-2.28,2.06,4.16,4.16,0,0,1,2.4,2,7.14,7.14,0,0,1,.74,3.39v2a9.22,9.22,0,0,0,.19,1.95,2.73,2.73,0,0,0,.69,1.39v.36h-3.11a2.76,2.76,0,0,1-.67-1.56,15.3,15.3,0,0,1-.15-2.17v-1.91a4.86,4.86,0,0,0-.84-3,2.78,2.78,0,0,0-2.33-1.1Zm0-2.41h3.22a3.47,3.47,0,0,0,2.77-1,4.37,4.37,0,0,0,.89-2.93,4.65,4.65,0,0,0-.87-3,3.18,3.18,0,0,0-2.64-1.07h-3.37Z"/><path class="cls-1" d="M173.91,594.81h-6.47l-1.56,5.72h-3.14l6.5-22.62h2.93l6.45,22.62h-3.14Zm-5.78-2.5h5.11l-2.5-9.19h-.08Z"/><path class="cls-1" d="M212.78,593.73l0,.09a7,7,0,0,1-12.17,4.81,9.1,9.1,0,0,1-2-6.25V586.1a9.26,9.26,0,0,1,2-6.26,6.59,6.59,0,0,1,5.24-2.25,7.18,7.18,0,0,1,5.18,1.79,6.79,6.79,0,0,1,1.8,5.24l0,.1h-2.9a5.25,5.25,0,0,0-1-3.57,3.83,3.83,0,0,0-3-1.14,3.53,3.53,0,0,0-3.08,1.56,7.76,7.76,0,0,0-1.09,4.48v6.33a7.72,7.72,0,0,0,1.12,4.52,3.65,3.65,0,0,0,3.15,1.57,3.71,3.71,0,0,0,3-1.13,5.47,5.47,0,0,0,1-3.61Z"/><path class="cls-1" d="M246.91,580.34h-5.75v20.19h-3V580.34h-5.7v-2.43h14.48Z"/><path class="cls-1" d="M271.07,600.53h-3V577.91h3Z"/><path class="cls-1" d="M299.73,595.34l.31,1.39h.09l.32-1.37L305,577.91h3.23l-6.63,22.62h-2.94L292,577.91h3.21Z"/><path class="cls-1" d="M339.21,590h-7.35v8.11h8.66v2.39H328.84V577.91h11.61v2.43h-8.59v7.28h7.35Z"/><path class="cls-1" d="M361.44,600.53V577.91h6.69a7,7,0,0,1,5.61,2.65,10.28,10.28,0,0,1,2.21,6.8v3.74a10.24,10.24,0,0,1-2.21,6.8,7,7,0,0,1-5.61,2.63Zm4.2-19.18v15.76h2.49a3,3,0,0,0,2.61-1.67,8.37,8.37,0,0,0,1-4.34v-3.77a8.31,8.31,0,0,0-1-4.31,3,3,0,0,0-2.61-1.67Z"/><path class="cls-1" d="M408,590.54h-6.63v6.57h7.94v3.42H397.19V577.91h12.1v3.44h-7.91v5.78H408Z"/><path class="cls-1" d="M439.82,594.66a3.24,3.24,0,0,0-.66-2.14,6.61,6.61,0,0,0-2.37-1.53,14.81,14.81,0,0,1-5-2.78,5.61,5.61,0,0,1-1.68-4.35,5.82,5.82,0,0,1,1.92-4.52,7.79,7.79,0,0,1,10,.11,6.46,6.46,0,0,1,1.86,5l0,.1h-4.08a4.12,4.12,0,0,0-.75-2.67,2.65,2.65,0,0,0-2.15-.91,2.25,2.25,0,0,0-1.87.84,3.16,3.16,0,0,0-.67,2.07,2.5,2.5,0,0,0,.76,1.89,9.85,9.85,0,0,0,2.6,1.64,12,12,0,0,1,4.75,2.74,6.14,6.14,0,0,1,1.62,4.48,5.79,5.79,0,0,1-1.89,4.57,7.36,7.36,0,0,1-5,1.66,8,8,0,0,1-5.26-1.8q-2.19-1.78-2.12-5.46l0-.09h4.09a4.57,4.57,0,0,0,.83,3.06,3.08,3.08,0,0,0,2.43.93,2.6,2.6,0,0,0,2-.77A3.05,3.05,0,0,0,439.82,594.66Z"/><path class="cls-1" d="M469.45,600.53h-4.18V577.91h4.18Z"/><path class="cls-1" d="M505.83,597.55a7.6,7.6,0,0,1-2.67,2.33,9.19,9.19,0,0,1-4.51,1,7.58,7.58,0,0,1-5.64-2.14,8.23,8.23,0,0,1-2.12-6.06v-6.87a8.41,8.41,0,0,1,2.06-6.06,7.24,7.24,0,0,1,5.46-2.14,7.36,7.36,0,0,1,5.34,1.75,6.42,6.42,0,0,1,1.74,5l0,.1h-3.94a3.72,3.72,0,0,0-.75-2.58,2.88,2.88,0,0,0-2.24-.81A3,3,0,0,0,496,582.2a5.76,5.76,0,0,0-.91,3.56v6.9a5.85,5.85,0,0,0,.92,3.6,3.14,3.14,0,0,0,2.64,1.18,5,5,0,0,0,1.92-.3,2.72,2.72,0,0,0,1.07-.8v-4.57h-3.31v-3h7.5Z"/><path class="cls-1" d="M542.5,600.53h-4.2l-6.87-14.43-.09,0v14.41h-4.2V577.91h4.2l6.88,14.45.08,0V577.91h4.2Z"/><path class="cls-1" d="M415,2.34V109.66h2.33L415.68,108l-.31.3a2.33,2.33,0,0,0-.38,2.84l.25.45,2.07-1.07H415v156h2.33l-2-1.13q-2.89,5.21-6.15,10.15l3.89,2.57c2.24-3.4,4.36-6.87,6.34-10.45a2.29,2.29,0,0,0,.3-1.14V110.51a2.35,2.35,0,0,0-.26-1.07c-.12-.23-.24-.44-.36-.65L417,110l1.63,1.66.31-.29a2.39,2.39,0,0,0,.7-1.67V2.34Z"/><path class="cls-1" d="M308.35,174.05h0a2.35,2.35,0,0,0-.68,1.65,2.38,2.38,0,0,0,.68,1.65L329,198a2.35,2.35,0,0,0,1.65.69h0v-2.34L329,198l80.42,80.42,1.66-1.65-1.95-1.28c-1.38,2.08-2.8,4.13-4.28,6.15a158.86,158.86,0,0,1-29.28,30.57L377,314l.05-2.34h-.85a101.33,101.33,0,0,0-75.64,33.77l3.48,3.12a96.66,96.66,0,0,1,72.16-32.22H377a2.36,2.36,0,0,0,1.51-.51,163.5,163.5,0,0,0,30.15-31.47q2.26-3.11,4.4-6.33a2.36,2.36,0,0,0-.3-2.94l-80.43-80.42a2.35,2.35,0,0,0-1.65-.68h0v2.33l1.65-1.65-20.64-20.63L310,175.71l1.66,1.65h0l-3.3-3.3Z"/><path class="cls-1" d="M279.31,413.25a96.5,96.5,0,0,1,24.74-64.67L302.31,347l.37,2.3a162,162,0,0,0,75.79-33.47L377,314l0,2.33c2.91,0,5.78.18,8.63.45l.22-2.33-1.65-1.65L275.78,421.23l3.3,3.31L387.49,316.13a2.33,2.33,0,0,0-1.43-4q-4.46-.42-9-.47a2.41,2.41,0,0,0-1.48.51A157.29,157.29,0,0,1,302,344.71a2.36,2.36,0,0,0-1.38.75,101.22,101.22,0,0,0-25.93,67.79Z"/><path class="cls-1" d="M332.66,156.22l50.4-88.81,12.29-21.65L384.42,70.23l-43.17,96.63-12.74,28.51,2.14.95L329,194.67h0l3.31,3.3h0a2.81,2.81,0,0,0,.48-.7l12.73-28.5,43.17-96.63L419.44,3.29a2.33,2.33,0,0,0-4.16-2.11L379,65.11l-50.4,88.8,4.06,2.31Z"/><path class="cls-1" d="M275.32,103.05,296,123.69,328.3,156v34.66l-16.65-16.64-33-33-3.3,3.31,33,33L329,198a2.33,2.33,0,0,0,4-1.65V155.07a2.35,2.35,0,0,0-.68-1.65l-33-33L278.62,99.75l-3.3,3.3Z"/><path class="cls-1" d="M274.64,413.25q0,5,.47,9.86l2.32-.22-1.65-1.66-.46.47,3.3,3.3.46-.46a2.35,2.35,0,0,0,.68-1.88q-.45-4.64-.45-9.41Z"/><path class="cls-1" d="M274.64,413.25v10.1H277l1.65-1.65-.46-.47-3.3,3.31.46.46a2.34,2.34,0,0,0,4-1.65v-10.1Z"/><path class="cls-1" d="M253.37,345.46a101.3,101.3,0,0,0-75.63-33.77h-.86l.05,2.34,1.46-1.83a159.21,159.21,0,0,1-29.29-30.57c-1.47-2-2.9-4.07-4.26-6.15L140.93,278q2.13,3.24,4.4,6.34a163.5,163.5,0,0,0,30.15,31.47,2.33,2.33,0,0,0,1.5.51h.76a96.62,96.62,0,0,1,72.15,32.22l3.48-3.12Z"/><polyline class="cls-1" points="274.64 142.68 274.64 413.25 279.31 413.25 279.31 142.68"/><path class="cls-1" d="M277,413.25h-2.33c0,3.18-.16,6.32-.45,9.41l2.32.23,1.65-1.66-108.4-108.4-1.65,1.65.22,2.33c2.85-.27,5.72-.43,8.62-.45l0-2.33-1.45,1.82a162,162,0,0,0,75.79,33.47l.36-2.3-1.74,1.56a96.51,96.51,0,0,1,24.75,64.67h4.67a101.22,101.22,0,0,0-25.94-67.79,2.37,2.37,0,0,0-1.37-.75,157.32,157.32,0,0,1-73.61-32.51,2.36,2.36,0,0,0-1.47-.51c-3,0-6,.19-9,.47a2.33,2.33,0,0,0-1.43,4l108.4,108.41a2.34,2.34,0,0,0,4-1.43q.46-4.86.47-9.86Z"/><path class="cls-1" d="M225,156.72l33-33L274.64,107v34.67l-32.35,32.35-20.62,20.62L225,198l20.62-20.62,33-33a2.36,2.36,0,0,0,.69-1.66V101.4a2.33,2.33,0,0,0-4-1.65l-20.63,20.64-33,33,3.31,3.3Z"/><path class="cls-1" d="M134.61,3.49l36.27,63.92L221,155.68v40.64h4.67V155.07a2.36,2.36,0,0,0-.3-1.16l-50.4-88.8L138.67,1.18l-4.06,2.31Z"/><path class="cls-1" d="M223.32,196.33l-1.65-1.65h0l-80.42,80.42,1.66,1.65,1.94-1.29c-2.18-3.29-4.22-6.67-6.15-10.13l-2,1.14H139v-156h-2.33l2,1.15c.12-.21.21-.38.28-.49a2.33,2.33,0,0,0-.37-2.86l-.3-.3-1.64,1.67H139V13.29l26.29,58.84,43.18,96.63,12.73,28.51a2.72,2.72,0,0,0,.44.66h0l1.69-1.61-1.65-1.65,1.65,1.65,1.69-1.61h0l-1.69,1.61,2.13-.95L212.7,166.85,169.53,70.23,138.77,1.38a2.34,2.34,0,0,0-4.47,1V109.66a2.39,2.39,0,0,0,.7,1.67l.31.29,1.63-1.66-2-1.2c-.15.24-.25.45-.33.59a2.3,2.3,0,0,0-.31,1.14v156a2.36,2.36,0,0,0,.3,1.13c2,3.57,4.09,7,6.34,10.44a2.32,2.32,0,0,0,3.6.36L225,198h0a2.34,2.34,0,0,0,0-3.26Z"/></g></g></svg>