<svg xmlns="http://www.w3.org/2000/svg" viewBox="0 0 274.46 228.55"><defs><style>.cls-1{fill:none;stroke:#fff;stroke-miterlimit:10;stroke-width:4px;}</style></defs><title>adaptability</title><g id="Capa_2" data-name="Capa 2"><g id="Capa_1-2" data-name="Capa 1"><path class="cls-1" d="M246.56,69.46c3.06-.62,11.34,3.74,19-.25,12-6.22,5.56-8.87.74-11s-17.4-6.44-18.51-17.85a17,17,0,0,0-10.59-14.59s4.39-22.4.21-23.67S218.53,16,214.53,19.5C201,19.5,186.68,37.26,186.34,58c-.35,20.88-11.18,36.18-22.17,40.75-63.18,20.61-67,58.66-66.84,87.17a85.61,85.61,0,0,0,2.1,19.3c-6.8-6.5-16.53-25.59-10-60.51,8.15-43.81-15.62-87.28-82.87-75.74C31.31,80.83,38.8,112.68,34,130.75c-10.24,38.84-13.24,95.8,61.48,95.8H170c5.84,0,13.57,0,13.57-5.48,0-6.18-21.64-7.89-23.36-9.44,0,0,36.09-2.74,38.81-37.77,0,0,30,52.4,39.49,52.54s16.13,0,22.15,0c5.22,0,7.19-2.92,7.19-7s-6.05-6-9.43-6c-3.13,0-10.13.86-14.25-4.81-20.6-26.44-19.73-46.64-19.75-57.17,0-5.09,1.55-8.76,3.79-12.54,14.93-26.61,16.93-30.79,17-40.72s-7.33-19.64-8.66-21.71S239.84,70.83,246.56,69.46Z"/></g></g></svg>