<svg xmlns="http://www.w3.org/2000/svg" viewBox="0 0 698.22 626"><defs><style>.cls-1{fill:#fff;}</style></defs><title>communication</title><g id="Capa_2" data-name="Capa 2"><g id="Capa_2-2" data-name="Capa 2"><path class="cls-1" d="M551.51,108.27c-10.52-10-20.67-20-31.29-29.54a304.79,304.79,0,0,0-89.35-55.67A300.82,300.82,0,0,0,354.88,3c-7.56-1-15.1-2-22.66-3h-38q-11.34,1.47-22.69,2.93A311.93,311.93,0,0,0,90.73,92.62a312.71,312.71,0,0,0-63.67,92.92,308.41,308.41,0,0,0-20.27,62A316.21,316.21,0,0,0,23.27,431.77,310.49,310.49,0,0,0,58,494.48a314,314,0,0,0,67.72,69.35,308.86,308.86,0,0,0,72.09,40.23,314.72,314.72,0,0,0,93.59,21.16,14.53,14.53,0,0,1,2.83.78h38c9.2-1.25,18.41-2.44,27.59-3.77a304.93,304.93,0,0,0,110-38.48,315.83,315.83,0,0,0,77-62.82c1.21-1.35,2.31-2.81,3.61-4.39L352,313ZM391.08,73.79a43.57,43.57,0,0,1,.42,87.13c-23.61.32-43.62-19.24-44.07-43.09S367.09,73.82,391.08,73.79Z"/><polygon class="cls-1" points="506.22 287 638.22 160.93 660.22 221.83 506.22 287"/><polygon class="cls-1" points="506.22 332.46 638.22 458.53 660.22 397.63 506.22 332.46"/><polygon class="cls-1" points="506.22 313 698.22 259 698.22 363 506.22 313"/></g></g></svg>