<svg xmlns="http://www.w3.org/2000/svg" viewBox="0 0 224.57 393.2"><defs><style>.cls-1{fill:#fff;}</style></defs><title>creativity</title><g id="Capa_2" data-name="Capa 2"><g id="Capa_1-2" data-name="Capa 1"><path class="cls-1" d="M46.14,296.59c-.6-12.8-.7-25.65-1.92-38.39-1.47-15.38-9.13-28.72-15.58-42.41C15.37,187.58,5,158.61.91,127.36-7.26,64.85,40.41,5.63,102.58.39c65.69-5.53,125.29,48,121.85,118.21-1.28,26.06-7.91,50.89-18.33,74.73q-8.07,18.49-16.71,36.76a100.32,100.32,0,0,0-9.92,42.43c-.16,15.83-.11,31.66-.14,47.48,0,19.09-9.46,33-27.06,40.39a7.16,7.16,0,0,0-3.7,4.4c-3.76,17.76-16.94,28.34-35.78,28.41-19.31.08-32.41-10.22-36.39-28.3a7.21,7.21,0,0,0-3.66-4.44c-17.63-7.41-27.1-21.31-27.13-40.35q0-11.75,0-23.49Zm79.41-23c13.43,0,25.58-.05,37.73,0,3.28,0,3.27-2.12,3.3-4.35.23-17.35,5.13-33.44,12.85-48.84,8.79-17.52,17.15-35.24,22.71-54.11,6.39-21.66,11.4-43.51,8.54-66.39C203.59,43.33,148.86,3.78,93.23,15.18,40.09,26.06,6.08,76.5,14.65,131.09c4.59,29.25,14.4,56.66,27.74,82.91,9,17.7,16.09,35.87,16,56.12,0,2.93,1.4,3.59,4.06,3.56,8.83-.12,17.66,0,26.49,0H99.3c-.59-11.21-.81-21.53-1.74-31.79C96,224.6,93.38,207.49,86.77,191.29c-.55-1.34-2.27-2.46-3.71-3.13-3.85-1.81-8.58-2.48-11.59-5.15-4.09-3.62-7.72-7.17-13.38-8.23A8.49,8.49,0,0,1,53,171c-4-7.13-7.65-14.45-11.21-21.81-.59-1.22,0-3-.17-4.45-.29-2-.39-4.21-1.35-5.87-3.93-6.77-4.13-14.82.8-20.57a10.75,10.75,0,0,0,2.76-10.09c-.49-2.8,1.22-6,2-9,.53-2.16,1.61-4.32,1.56-6.46-.17-6.3,1.12-12.18,5.83-16.41A150.65,150.65,0,0,0,65.12,64.84c2.46-2.76,7.24-3.45,11-5.07,2-.87,4.33-1.38,6-2.71,5.74-4.63,12-5.84,18.65-2.9,6.37,2.8,9.61,7.9,9.6,15q0,49.5,0,99a17.38,17.38,0,0,1-5.68,13.37c-2.53,2.33-5.43,4.24-8.71,6.75,10.59,27.13,12.21,56,12.88,84.82,7.41,1,7.44,1,7.56-5.61.43-24.22,2.48-48.23,9.47-71.58.87-2.93,2.19-5.73,3.3-8.61C119,183,114.43,176.11,114.52,165.4c.28-31.67.16-63.33,0-95,0-7.65,2.82-13.36,9.9-16.35,6.93-2.92,13.31-1.61,18.93,3.55a7.42,7.42,0,0,0,4.19,2c7.76.38,12,5,16.83,10.65,4.52,5.27,11.35,8.52,12.79,16.27a6.34,6.34,0,0,1,.19,1.49,25.28,25.28,0,0,0,3.19,14.67c1.15,2,.16,5.18.48,7.78.25,2,.46,4.47,1.66,5.92,5.65,6.84,6.36,15.1,1.79,22.71-.9,1.51-1,3.57-1.22,5.4s.41,3.91-.29,5.43c-3.17,6.83-5.79,14.23-10.4,20-3.05,3.79-10,4.26-13.67,7.79-4.13,3.95-7.71,8.16-13.41,9.77a3.73,3.73,0,0,1-1,.21c-5.7,0-7.65,4-8.59,8.48-2.9,13.79-6.11,27.56-8,41.5C126.28,249.3,126.3,261.16,125.55,273.63Zm-63.3,61.24c5.73,9.31,12.93,14.28,22.26,14.52,18.81.47,37.65.51,56.46-.06,9.24-.28,16.34-5.36,21.59-14.48-7.5,0-13.93,0-20.36,0-3.4,0-6.71-.42-6.67-4.79,0-4.6,3.53-5,7.09-5,5.16,0,10.33.06,15.49,0,9.19-.09,7.88,1.06,8.34-8.34.23-4.44-1.16-5.68-5.57-5.61-16.32.25-32.65.11-49,.1-1.66,0-3.71.42-4.89-.37-1.71-1.15-3.88-3.27-3.81-4.9s2.61-3.24,4.41-4.25c1.15-.65,2.94-.2,4.44-.2h45c9.32,0,9,0,9.44-9.18.22-4.91-1.69-5.73-6.05-5.7-30.49.15-61,.07-91.46.07-11.24,0-11.14,0-10.43,11.22.18,2.9,1.33,3.69,4,3.62,4.82-.14,9.66,0,14.49,0,3.42,0,6.18.94,6.23,4.78s-2.81,4.91-6.16,4.93c-4.83,0-9.67.18-14.49,0-3.1-.13-4.26,1.07-4,4a22.16,22.16,0,0,1,0,4c-.48,4.33.82,6.1,5.73,6,16.15-.35,32.31-.15,48.48-.15,3.41,0,6.6.63,6.67,4.9.09,4.43-3.22,4.85-6.59,4.86l-20,0ZM120.8,147.36c0,7.41,0,14.37,0,21.32.08,7.92,7.52,12.86,13.44,14.08,7.33,1.5,16.16-2.56,18.9-8.21,2.08-4.3.24-7.32-4.53-6.87a48.14,48.14,0,0,0-11.2,2.22c-3.61,1.26-4.89.24-6.29-3.11-1-2.51-3.73-4.32-5.58-6.51-1-1.24-1.91-2.64-2.85-4,1.72-.48,4-1.89,5.08-1.25,3.59,2.11,6.75,4.95,10.76,8,.8-.14,2.76-.51,4.73-.82s3.82-.56,5.73-.84l.8-1.13c-1.51-1.2-3.31-2.19-4.43-3.69-.78-1.05-.62-2.8-.89-4.24,1.5-.11,3.69-.9,4.37-.2a78.43,78.43,0,0,1,8.83,10.6c1.5,2.22,2,5.13,2.89,7.67,6.22-1.4,9.34-4.95,10.28-10.45a12.84,12.84,0,0,1,2.87-5.83c2.78-3.25,4.45-6.36,2.76-10.86-.57-1.51.14-4.18,1.24-5.54,5.48-6.75,5.09-14.13-1.92-19-3.46-2.4-3.69-4.41-1.64-7.76a7.39,7.39,0,0,0-1.17-9.64c-2.43-2.36-2.38-4.64-1.75-7.65A13.92,13.92,0,0,0,164,78.29c-4.2,5.86-8.38,11.72-3.33,19.19.18.27.43.66.35.91-.44,1.41-1,2.8-1.49,4.19-1.34-.65-3.13-1-3.93-2-1.31-1.73-2-4-3-6.08-1.35.86-2.15,1.73-3.05,1.85a57.73,57.73,0,0,1-6.18.27,39.62,39.62,0,0,1,3-5.21c3.14-4,7-7.58,9.6-11.92,4.34-7.27,0-14.28-8.48-13.76-4.07.25-6.29-1.06-8.83-3.93-5-5.61-15-4.12-16.79,2.84-1.56,6-1,12.57-1.42,18.88l1.79,1.07c4.23-2.06,8.4-4.28,12.72-6.12,1.66-.71,3.67-.56,5.52-.8-.6,1.82-.66,4.6-1.88,5.28-4.6,2.53-9.61,4.3-14.38,6.52-1.3.61-3.27,1.74-3.32,2.72-.32,5.54-.16,11.12-.16,17.07a18.6,18.6,0,0,0,2.67-.69c8.31-4.09,16-3.38,23.29,2.54,2.67,2.17,12,.35,14.74-2.29.87-.84,2.77-1.49,3.71-1.09s1.25,2.23,1.54,3.51c.65,2.88,1.17,5.79,1.62,8.7.19,1.17.53,3.07,0,3.44a5,5,0,0,1-3.93.53,5.21,5.21,0,0,1-2.7-2.78c-1.74-4.22-4.73-4.36-8.61-3.17a6.71,6.71,0,0,1,.45,2.12c-.25,1.43-.71,2.82-1.08,4.22-1.52-.64-3.67-.86-4.43-2-3.11-4.69-6.33-9-12.31-10.16S121,115,120.8,119.2c-.31,7.11-.08,14.24-.08,21.24,7.19,1.43,12.25-1.07,15.65-7.35,3.18-5.89,5-6,9-.52,5.29,7.21,10.63,8.2,18,3.32.7-.46,1.33-1.28,2-1.37a31.52,31.52,0,0,1,4.55.12c-.29,1.49-.17,3.26-1,4.4-1,1.41-2.72,2.29-4,3.29.87,2.63,2.11,4.93,2.24,7.29.08,1.55-1.44,3.18-2.25,4.78-1.19-1.22-2.42-2.41-3.56-3.68-1.75-1.95-3.32-5.52-5.18-5.66-6.06-.46-10.77-2.95-15.16-7.57C136.21,144.62,129.35,147.42,120.8,147.36ZM61,78.14c-5.91,3.46-8.18,9-7.38,15.78A11.26,11.26,0,0,1,52,101c-2.42,3.59-3.12,6.92-.82,10.64,1.69,2.74,1.43,4.66-1.4,6.71-7.66,5.58-8.2,12.33-2.34,19.65a6.79,6.79,0,0,1,1,5.57c-1.47,4.08,0,6.95,2.31,10.07a19.63,19.63,0,0,1,3.48,7.14,11.52,11.52,0,0,0,10.38,9.41c.41-1.33.57-2.91,1.34-4.09a150.2,150.2,0,0,1,9.29-13.32c.77-.95,3.39-.41,5.15-.56-.42,1.67-.56,3.49-1.36,5s-2.22,2.47-3.85,4.18c3.32.48,5.64.68,7.9,1.19,3.11.69,5.31.56,7.44-2.66,1.57-2.38,4.84-3.83,7.63-5.1,1-.43,2.73.94,4.13,1.49a28.26,28.26,0,0,1-2.31,3.78c-2,2.44-5,4.42-6.2,7.18-1.5,3.29-3,3.62-6.12,2.67a59.7,59.7,0,0,0-11.71-2.26c-4.32-.4-6.11,2.7-4.24,6.72,2.49,5.34,10.31,9.07,17.51,8.34s14-5.43,14.54-11.63c.7-7.71.17-15.53.17-23.7-8.31,0-15.17-2.75-19.18-8.66-5,2.18-9.15,4.91-13.63,5.69s-6.89,2.36-7.75,6.83c-.23,1.2-2,2.11-3,3.15-.93-1.35-2.67-2.75-2.6-4,.15-2.71,1.26-5.38,2.06-8.35-.52-.38-1.6-.78-2.07-1.55-1.08-1.78-1.87-3.73-2.78-5.61,2,.2,4.45-.25,6,.73,8.08,5.18,13.1,4.47,18.82-3.17,4-5.42,5.6-5.3,9,.81,2.59,4.74,6.42,7.49,11.86,8,2.53.24,3.79-.56,3.75-3.23-.06-4.67,0-9.33,0-14,0-7.34-1.41-9.23-8.37-11.41-6.23-1.94-12.14.24-16.54,6.17-1.08,1.47-1.77,3.34-3.11,4.49a4.81,4.81,0,0,1-3.92.77c-.69-.21-1.07-2.11-1.19-3.3-.1-.88.44-1.83.77-3-3.65-.62-6.84-1.27-8.43,3.1a5.43,5.43,0,0,1-2.61,2.9c-1.17.48-3.1.56-4-.12-.66-.51-.33-2.52-.14-3.82.41-2.78.92-5.55,1.57-8.28.34-1.41.72-3.17,1.72-3.92.59-.44,2.52.64,3.68,1.32s2.07,2.46,3.12,2.49c5.23.12,10.55,1.72,15.35-2.76,2.13-2,6.22-2.65,9.37-2.54,4,.13,8,1.66,12.7,2.76,0-5-.13-9.91,0-14.83.11-3.1-1.24-4-4.13-4.93a78.22,78.22,0,0,1-14.31-6.61c-1-.6-.92-3.25-1.33-4.95,1.74.2,3.94-.2,5.13.71a28.51,28.51,0,0,0,14.6,5.57c0-4.42,0-8.22,0-12A32,32,0,0,0,104,67.3,9.79,9.79,0,0,0,97,59c-4-1.36-8-.7-10.49,2.52-2.67,3.44-5.38,4.31-9.67,4.18-8-.25-12.14,6.66-8,13.36,3,4.83,7.46,8.73,11.1,13.18.92,1.11,1.22,2.72,1.8,4.11-1.62.31-3.36,1.13-4.85.82-1.64-.34-3.06-1.72-4.79-2.78-.75,1.85-1.33,3.21-1.87,4.6-.89,2.29-2.11,4.8-4.89,3.27-1-.55-1.51-4.13-.73-5.36C69.44,89.27,64.29,84,61,78.14Zm28.8,284.77c2,12.14,11.16,17.71,26.7,16.93,9.64-.49,18-8.08,18.49-16.93Z"/></g></g></svg>