<svg xmlns="http://www.w3.org/2000/svg" viewBox="0 0 291.59 492.33"><defs><style>.cls-1{fill:#fff;}</style></defs><title>energy</title><g id="Capa_2" data-name="Capa 2"><g id="Capa_2-2" data-name="Capa 2"><path class="cls-1" d="M82.84,40.44C87.8,5.09,93.49.09,126.3,0,137.16,0,148,0,158.87,0,197.7,0,201,2.58,208.32,40.38c6.68,0,13.77,0,20.86,0,49.5.2,62.23,13.21,62.23,63.6q0,136.77,0,273.54c0,21,.41,42,0,63-.75,36.25-16.21,51.59-52.06,51.69q-94.44.27-188.87,0C15.54,492.11.22,476.86.17,441.9Q-.1,267.14.06,92.37C.1,56.42,16,40.66,51.43,40.45,61.49,40.39,71.54,40.44,82.84,40.44Zm23.91,23c-18.75,0-36.65-.29-54.53.07-23.38.47-29.51,6.61-29.54,30q-.18,172.66,0,345.33c0,24.58,6.12,30.73,30.74,30.82q91.21.31,182.44.05c26.32-.06,31.91-5.59,31.93-32q.12-170.44-.11-340.89c0-28.93-4.67-33.21-34.64-33.35-16.31-.08-32.63,0-50.07,0,0-11.3,1.5-19.62-.5-27-1.44-5.3-7.29-13-11.61-13.29-16.44-1.16-34.69-1-52.63-.88a11.81,11.81,0,0,0-11.76,12C106.62,43.91,107.36,53.1,106.75,63.46Z"/><path class="cls-1" d="M249.65,165H40.46c0-23.91-1.08-47.52.86-70.87C41.74,89.08,52.91,81,59.24,80.91Q145.1,79.35,231,81c6.33.14,17.26,9.43,17.82,15.26C250.92,118.35,249.65,140.76,249.65,165Z"/><path class="cls-1" d="M249.61,368c0,22.64,1.27,44.38-.79,65.81-.6,6.32-10.49,16.68-16.32,16.81-57.94,1.33-115.93,1-173.9.91-12.08,0-18.68-5.92-18.49-18.82.3-21,.08-42,.08-64.71Z"/><path class="cls-1" d="M248.48,256.72H41.36V183H248.48Z"/><path class="cls-1" d="M249.17,275.52V349h-208V275.52Z"/></g></g></svg>