<svg xmlns="http://www.w3.org/2000/svg" viewBox="0 0 329.57 256.63"><defs><style>.cls-1{fill:#fff;}</style></defs><title>social</title><g id="Capa_2" data-name="Capa 2"><g id="Capa_1-2" data-name="Capa 1"><path class="cls-1" d="M199.3,46.71c-1.25-3.15-4.26-4.08-6-6.34-2.26-3-2.14-5.3.65-7.77,10.88-9.66,20.82-20.28,31-30.68,2.19-2.24,4.13-2.42,6.37-.14,2.9,3,5.91,5.81,8.83,8.75C255.93,26.44,272.3,41.8,287.8,58c10.35,10.82,21.39,20.93,31.6,31.86,2.83,3,6.1,5.6,8.81,8.79,1.81,2.13,1.85,3.47-.13,5.43-10.41,10.29-20.79,20.63-31,31.09-3,3.1-5.61,4-8.45,0a6,6,0,0,0-.71-.71c-5.84-5.72-5.38-5.3-10.78.58-3.35,3.64-4.32,7.14-4.71,11.79-.45,5.47-6.16,7.86-9.11,12a16.19,16.19,0,0,1-3,2.58c-5.43,4.39-7.74,8.87-3.94,16.18s.16,15.56-8.12,21.41c-2.84,2-3.86,4-2.2,7.08,5.32,9.83-3,26.48-18,25.5-4.1-.26-6.06.74-7.84,4.6-3.53,7.67-13.93,14.27-24.39,8.45-3-1.69-4.12-.84-5.73,1.8-6.45,10.55-15.87,13-26.35,7a5.51,5.51,0,0,0-6.4,0c-7.54,4.54-17,4.18-23.24-1.46-2.74-2.47-4-6.49-4.88-10.18-.75-3.31-2.09-5.05-5.62-5.78-8-1.65-12.76-6.93-14.56-14.74-.69-3-1.88-4.64-5.1-5-8.74-.88-12.89-6.7-14.62-14.58-.74-3.36-2.27-5-5.74-5.71-13.17-2.79-19.32-18.7-11.56-28.53,1-1.24,1.78-2.7.29-4-4.44-3.78-4.13-8.87-3.8-13.84a11.07,11.07,0,0,0-4-9.68c-4.07-3.66-7.87-7.63-11.85-11.4-2.15-2-4.34-2.2-6.47.2-2.33,2.62-4.72,5.17-7.14,7.69-2,2.1-3.63,2.06-5.75-.32-9.37-10.51-19.68-20.1-29.9-29.77C-1,102.29-1.15,101.53,3,97.33Q50.89,49.42,98.73,1.48c1.34-1.35,2.1-2.3,3.9-.46q16.11,16.34,32.43,32.46c2.85,2.81,2.64,4.87-.48,7.28-2,1.53-5.49,3.21-4.37,5.85.87,2,4.57.82,7,.83q28.23.11,56.48,0C195.45,47.44,197.32,47.93,199.3,46.71Zm-57.3,10c-7.93,0-14.73,0-21.54,0-2,0-3.41,1.1-4.74,2.43Q87.48,87.4,59.17,115.6c-2.7,2.68-2.46,4.54.17,7,4,3.74,7.5,8.14,11.78,11.52,5.26,4.15,7.45,9.09,6.5,15.6-.63,4.34,1.21,7.47,4.29,10.53q40.8,40.49,81.37,81.21A29.18,29.18,0,0,0,169,246.2c4.08,2.36,8,1.77,11.34-1.69,4.34-4.53,4.12-9.42-.85-14.43-12-12.07-24-24-36-36.07a32.74,32.74,0,0,1-3.67-4.06c-1.27-1.78-1.47-3.77.23-5.46a4,4,0,0,1,5.83-.24c1.54,1.26,2.94,2.7,4.35,4.11q21.93,21.9,43.83,43.82a19.49,19.49,0,0,0,5.49,4.27,9.44,9.44,0,0,0,11.74-2.55c2.92-3.73,3-7.67.13-11.48a47.1,47.1,0,0,0-4.34-4.82Q185.51,196,163.93,174.49a42.07,42.07,0,0,1-4-4.43c-1.46-1.94-1.65-4.13.26-5.86s4-1.56,5.87.1c1,.87,1.92,1.85,2.86,2.79l49.48,49.48c2,2,4,4,6.69,5.13,3.34,1.35,6.61,1.17,9.41-1.17a9.78,9.78,0,0,0,3.8-9.28c-.4-2.82-2.33-4.73-4.21-6.62L197,167.52c-5.42-5.42-10.87-10.81-16.2-16.31-2-2.09-3.07-4.6-.46-7,2.35-2.15,4.58-1.19,6.56.82,1.06,1.06,2.14,2.11,3.19,3.17q18.73,18.74,37.47,37.46a39.09,39.09,0,0,0,6.52,5.39c3.62,2.28,7.25,2,10.59-.9,5.16-4.39,5.06-9.88-.49-15.45-17-17.11-33.52-34.87-51.46-51-11-9.9-16.8-20.38-14.2-35a3.35,3.35,0,0,0,0-1c-.26-2,.82-4.8-1.93-5.62-2.5-.75-5.31-.92-7.66.88A30,30,0,0,0,166,85.65c-6.37,6.35-12.62,12.83-19.15,19-4.82,4.57-10.23,8.21-17.45,6.57-7.4-1.67-12.48-6-14.85-13.33-2.48-7.65.57-13.69,5.7-19C127.14,71.74,134.16,64.7,142,56.72Zm40.79,0c-7.83,0-15.65,0-23.48,0-1.82,0-3.79-.24-5.23,1.16C144,67.71,133.54,77.32,124.22,88c-3,3.36-1.94,8.12,1.58,11.73,3.22,3.29,7,3.75,10.93,1.53a31.77,31.77,0,0,0,6.17-5q10.32-10.16,20.46-20.49c1.83-1.87,3.79-3.18,6.51-3.15,4.33,0,8.66.06,13,0,3.38,0,4.81,1.52,4.78,4.86-.08,7.32.22,14.66-.09,22A13.05,13.05,0,0,0,191.79,110q25.58,25.28,50.93,50.78c2.12,2.13,3.57,2.41,5.69.13,3.74-4,7.61-7.92,11.56-11.73,2.57-2.48,3.93-5.31,3.53-8.9a8.63,8.63,0,0,1,3.23-7.92c2.25-2,4.11-4.4,6.43-6.28,2.72-2.2,2.74-3.85.21-6.36q-30.17-29.86-60.09-60a9.7,9.7,0,0,0-7.52-3.13C198.1,56.77,190.44,56.68,182.79,56.68ZM147.44,247.5c2.2-.05,4.69-.2,5.64-2.35s-1.6-3-2.75-4.21c-2.23-2.44-4.59-4.77-7-7-2.75-2.55-4.48-1.93-5.41,1.76C136.49,241.36,141.42,247.47,147.44,247.5Zm-59.8-60c2-.14,4.19-.16,5.06-2.34.76-1.92-1.09-2.92-2.18-4.06-2.29-2.38-4.65-4.68-7-7-.92-.91-1.83-2.21-3.31-1.74s-2,2.09-2.32,3.56C76.61,181.8,81.5,187.57,87.64,187.49Zm40.33,40c1.51-.09,3.72-.09,4.66-2.19s-1.19-3.19-2.36-4.43c-2.38-2.52-4.88-4.92-7.35-7.35-2.31-2.28-3.75-1.19-4.74,1.31C115.88,220.65,120.91,227.48,128,227.48Zm-20.12-20c1.85-.14,4.35-.38,5.28-2.5.75-1.73-1.52-2.7-2.6-3.85-2.41-2.54-5-4.94-7.42-7.43s-4-1.38-5,1.39C96.08,200.74,101.23,207.48,107.85,207.47Z"/></g></g></svg>