<svg xmlns="http://www.w3.org/2000/svg" viewBox="0 0 601.06 468.95"><defs><style>.cls-1{fill:#fff;}</style></defs><title>teamwork</title><g id="Capa_2" data-name="Capa 2"><g id="Capa_2-2" data-name="Capa 2"><path class="cls-1" d="M349.78,146.73V152q0,117,0,233.91c0,19.66.18,39.33-.13,59a31.4,31.4,0,0,1-3,13.39c-4.33,8.5-14.39,12.28-23.52,9.86-9.48-2.51-15.3-10.48-15.31-21.37q0-75.75,0-151.5v-7.55H293.28v6.29q0,76.24,0,152.49c0,10.53-4.72,17.66-13.67,21a21.14,21.14,0,0,1-22.84-5.68c-4.58-5-5.51-11.17-5.51-17.65q0-82.25,0-164.5V146.9c-7.2-1.11-9.83,1.32-9.84,8.79q0,41.25,0,82.5c0,11.5.14,23-.25,34.49-.26,7.91-6.6,13.81-14.56,14.48-7.06.6-14.23-4.49-16.13-11.6a21.48,21.48,0,0,1-.53-5.44q0-63.24,0-126.49a45.59,45.59,0,0,1,45.27-45.19c29.83-.09,59.66.06,89.5,0,29.16-.08,46.79,24.81,46.49,46.08-.58,42-.08,84-.06,126,0,9.56-6.43,16.42-15.51,16.72a15.57,15.57,0,0,1-15.89-15.83c-.18-29.49,0-59,0-88.49,0-9.65.06-19.3-.17-28.95C359.45,148.11,356.61,146.07,349.78,146.73Z"/><path class="cls-1" d="M139,173.06c-6.67-.89-9.06,1.32-9.07,8q0,51,0,102a36.15,36.15,0,0,1-.71,7.92A14.09,14.09,0,0,1,114,301.89c-7.56-.74-13.08-6.28-13.1-13.84-.08-40-.27-80,.11-120,.2-21,18-38.41,40.34-39.23,20.3-.74,40.65-.14,61-.11.47,0,.94.25.46.12-1.44,46-.36,91.81-.65,137.56-.12,18.85,7.68,27.2,26.54,28.39a24.46,24.46,0,0,1,.41,3.25q0,75.49,0,151c0,8-3.44,14.19-10.75,17.73a18.53,18.53,0,0,1-19.84-1.61,17.33,17.33,0,0,1-7.66-13.4c-.12-1.83-.19-3.66-.19-5.49q0-69,0-138v-5.61H177.36V311q0,67,0,134c0,3.47.09,7.1-.84,10.38-2.65,9.46-11.61,14.63-21.83,13.12A18.66,18.66,0,0,1,139,449.85q-.09-57.24,0-114.48V173.06Z"/><path class="cls-1" d="M372,294.78c15.92-1,24-7.08,26.53-19.54a30.39,30.39,0,0,0,.43-6c.06-41.65.16-83.31.06-125,0-4.93-1.08-9.85-1.75-15.54,4.16,0,8.37,0,12.57,0,18.14.15,36.36-.62,54.42.74,20.23,1.53,35.86,19.74,35.95,40.11.17,39.16.09,78.32.06,117.48,0,8.37-5.69,14.39-13.71,14.84a14.26,14.26,0,0,1-15-13c-.57-5.44-.33-11-.33-16.48q0-45.74,0-91.48c0-6.46-1.95-8.37-9.06-8.24v5.67q0,135,0,270c0,13.31-9.16,21.62-22.14,20.16a18.6,18.6,0,0,1-16.06-16.6c-.19-2.49-.12-5-.12-7.49q0-67.24,0-134.48v-7.2h-13c-.11,2.16-.31,4.4-.31,6.64q0,69,0,138c0,5.51-.92,10.6-4.66,14.86a19.49,19.49,0,0,1-20.94,5.54A18.8,18.8,0,0,1,372,449.94c-.11-19.66,0-39.33,0-59q0-45,0-90Z"/><path class="cls-1" d="M35.19,196.49c-6.6-.49-8.27,1.13-8.28,7.67,0,31.66.1,63.32-.12,95a21.72,21.72,0,0,1-2.94,10.73c-3,4.93-9.13,6.36-14.58,4.53A13.06,13.06,0,0,1,.05,301.56C0,286.73,0,271.9,0,257.07c0-20.67,0-41.33,0-62,0-22.47,17-39.48,39.51-39.56,18.31-.07,36.62,0,55.14,0-.56,5.86-1.53,11.38-1.55,16.91-.14,37.16-.07,74.32-.07,111.48,0,16.53,8,24.93,24.72,25.73a34.33,34.33,0,0,1,.4,3.73q0,68.73,0,137.45c0,7.61-3.39,13.3-10.17,16.38a17.21,17.21,0,0,1-18.8-2.39c-4.58-3.67-6.36-8.66-6.35-14.54q.1-64,0-128v-6.37h-12v6q0,63.72,0,127.43c0,11.6-7.07,19.25-17.66,19.37a17.49,17.49,0,0,1-18-16.89c-.08-1.33,0-2.67,0-4V196.49Z"/><path class="cls-1" d="M565.9,196.38V416.12c0,11.15,0,22.29,0,33.44,0,11.46-7.26,19.17-17.85,19.16s-17.87-7.76-17.88-19.19q-.07-64,0-128v-5.75h-12v5.83q0,64.49,0,129c0,7.61-3.28,13.34-10,16.49a17.21,17.21,0,0,1-18.82-2.2c-5-3.91-6.53-9.28-6.52-15.47q.12-66,0-132v-7.7a65.93,65.93,0,0,0,7.62-.71A22.06,22.06,0,0,0,508,287.54q.12-59-.06-118c0-4.43-1.05-8.86-1.67-13.76,1.29-.1,2.68-.3,4.07-.31q25.5,0,51,0c22.72,0,39.75,17.14,39.75,39.87q0,52.49,0,105c0,11.12-9.18,17.8-18.71,13.63-6.08-2.65-8.2-7.75-8.19-14.14q.09-47.74,0-95.48C574.15,197.64,572.71,196.15,565.9,196.38Z"/><path class="cls-1" d="M300.33,88.22c-24,0-44.33-20.53-44.05-44.44a44.25,44.25,0,0,1,88.49.42A44.6,44.6,0,0,1,300.33,88.22Z"/><path class="cls-1" d="M184.19,37.35C206.51,37.4,225,55.76,225,78a41,41,0,1,1-40.84-40.61Z"/><path class="cls-1" d="M458,78.43a41,41,0,1,1-40.81-41.07A41,41,0,0,1,458,78.43Z"/><path class="cls-1" d="M525,72.26c21.12.16,37.34,16.81,37.14,38.09-.19,20.48-17.4,37.19-38,36.92-20.45-.26-37.15-17.45-37-38.07A37.3,37.3,0,0,1,525,72.26Z"/><path class="cls-1" d="M76.58,72.24A37.38,37.38,0,0,1,114,109.68a37.51,37.51,0,1,1-75-.31A37.08,37.08,0,0,1,76.58,72.24Z"/></g></g></svg>